<?xml version="1.0" encoding="UTF-8"?>
<svg width="85px" height="24px" viewBox="0 0 85 24" version="1.1" xmlns="http://www.w3.org/2000/svg" xmlns:xlink="http://www.w3.org/1999/xlink">
    <title>Disney</title>
    <g id="页面-1" stroke="none" stroke-width="1" fill="#ffffff" fill-rule="evenodd">
        <g id="Disney" transform="translate(0.8281, 0.0664)" fill="#ffffff" fill-rule="nonzero">
            <path d="M0,0.75390625 L7.88671875,0.75390625 C9.44140625,0.75390625 10.6972656,0.96484375 11.6542969,1.38671875 C12.6113281,1.80859375 13.4023438,2.4140625 14.0273438,3.203125 C14.6523438,3.9921875 15.1054688,4.91015625 15.3867188,5.95703125 C15.6679688,7.00390625 15.8085938,8.11328125 15.8085938,9.28515625 C15.8085938,11.1210938 15.5996094,12.5449219 15.1816406,13.5566406 C14.7636719,14.5683594 14.1835938,15.4160156 13.4414062,16.0996094 C12.6992188,16.7832031 11.9023438,17.2382812 11.0507812,17.4648438 C9.88671875,17.7773438 8.83203125,17.9335938 7.88671875,17.9335938 L0,17.9335938 L0,0.75390625 Z M5.30859375,4.64453125 L5.30859375,14.03125 L6.609375,14.03125 C7.71875,14.03125 8.5078125,13.9082031 8.9765625,13.6621094 C9.4453125,13.4160156 9.8125,12.9863281 10.078125,12.3730469 C10.34375,11.7597656 10.4765625,10.765625 10.4765625,9.390625 C10.4765625,7.5703125 10.1796875,6.32421875 9.5859375,5.65234375 C8.9921875,4.98046875 8.0078125,4.64453125 6.6328125,4.64453125 L5.30859375,4.64453125 Z" id="形状"></path>
            <path d="M20.1570313,0 C21.4272862,-2.33342044e-16 22.4570313,1.02974508 22.4570313,2.3 C22.4570313,3.57025492 21.4272862,4.6 20.1570313,4.6 C18.8867763,4.6 17.8570313,3.57025492 17.8570313,2.3 C17.8570313,1.02974508 18.8867763,1.55561363e-16 20.1570313,0 Z M17.8570313,5.48828125 L22.6265625,5.48828125 L22.6265625,17.9335938 L17.8570313,17.9335938 L17.8570313,5.48828125 Z" id="形状"></path>
            <path d="M24.2296875,14.4882812 L28.9640625,14.0429688 C29.159375,14.6054688 29.4328125,15.0078125 29.784375,15.25 C30.1359375,15.4921875 30.6046875,15.6132812 31.190625,15.6132812 C31.83125,15.6132812 32.3273438,15.4765625 32.6789063,15.203125 C32.9523438,15 33.0890625,14.7460938 33.0890625,14.4414062 C33.0890625,14.0976562 32.909375,13.8320312 32.55,13.6445312 C32.2921875,13.5117188 31.6085938,13.3476562 30.4992188,13.1523438 C28.8429688,12.8632812 27.6925781,12.5957031 27.0480469,12.3496094 C26.4035156,12.1035156 25.8605469,11.6875 25.4191406,11.1015625 C24.9777344,10.515625 24.7570313,9.84765625 24.7570313,9.09765625 C24.7570313,8.27734375 24.9953125,7.5703125 25.471875,6.9765625 C25.9484375,6.3828125 26.6046875,5.93945312 27.440625,5.64648438 C28.2765625,5.35351562 29.3976563,5.20703125 30.8039063,5.20703125 C32.2882813,5.20703125 33.3839844,5.3203125 34.0910156,5.546875 C34.7980469,5.7734375 35.3878906,6.125 35.8605469,6.6015625 C36.3332031,7.078125 36.7257813,7.72265625 37.0382813,8.53515625 L32.5148438,8.98046875 C32.3976563,8.58203125 32.2023438,8.2890625 31.9289063,8.1015625 C31.5539063,7.8515625 31.1007813,7.7265625 30.5695313,7.7265625 C30.0304688,7.7265625 29.6378906,7.82226562 29.3917969,8.01367188 C29.1457031,8.20507812 29.0226563,8.4375 29.0226563,8.7109375 C29.0226563,9.015625 29.1789063,9.24609375 29.4914063,9.40234375 C29.8039063,9.55859375 30.4835938,9.69921875 31.5304688,9.82421875 C33.1164063,10.0039062 34.2960938,10.2539062 35.0695313,10.5742188 C35.8429688,10.8945312 36.4347656,11.3515625 36.8449219,11.9453125 C37.2550781,12.5390625 37.4601563,13.1914062 37.4601563,13.9023438 C37.4601563,14.6210938 37.2433594,15.3203125 36.8097656,16 C36.3761719,16.6796875 35.6925781,17.2207031 34.7589844,17.6230469 C33.8253906,18.0253906 32.5539063,18.2265625 30.9445313,18.2265625 C28.6710938,18.2265625 27.0519531,17.9023438 26.0871094,17.2539062 C25.1222656,16.6054688 24.503125,15.6835938 24.2296875,14.4882812 Z" id="路径"></path>
        </g>
    </g>
</svg>